# xmcd
#
# Track frame offsets: 
#        150
#        24575
#        47357
#        66505
#        87217
#        106812
#        126875
#        151262
#        176407
#        201132
#        230205
#        254077
#        279092
#
# Disc length: 3992 seconds
#
# Revision: 3
# Processed by: cddbd v1.5.2PL0 Copyright (c) Steve Scherf et al.
# Submitted via: ExactAudioCopy v1.3
#
DISCID=ae0f960d
DTITLE=MISIA - Kiss In The Sky
DYEAR=2002
DGENRE=JPop
TTITLE0=眠れぬ夜は君のせい
TTITLE1=over bit
TTITLE2=Destiny's rule
TTITLE3=LALIA
TTITLE4=恋唄
TTITLE5=Don't stop music !
TTITLE6=Fly away
TTITLE7=Always
TTITLE8=風に吹かれて
TTITLE9=果てなく続くストーリー
TTITLE10=Shining Star
TTITLE11=太陽がいるから
TTITLE12=飛び方を忘れた小さな鳥
EXTD=YEAR: 2003
EXTT0=
EXTT1=
EXTT2=
EXTT3=
EXTT4=
EXTT5=
EXTT6=
EXTT7=
EXTT8=
EXTT9=
EXTT10=
EXTT11=
EXTT12=
PLAYORDER=
